<svg xmlns="http://www.w3.org/2000/svg" xmlns:xlink="http://www.w3.org/1999/xlink" width="640" height="480"><defs><symbol xmlns="http://www.w3.org/2000/svg" xmlns:svg="http://www.w3.org/2000/svg" id="e" viewBox="0 0 45 45"><defs><clipPath id="a"><path d="M0 36h36V0H0v36z"/></clipPath><clipPath id="b"><path d="M.25 23c0-4.383 2-11.999 11-16 18.131-8.058 23 0 24 3.001 1.703 5.108 0 15.999-12 13.999 0 3.001-2.286 4.626-5 7.001-2.204 1.929-4.56 2.731-6.817 2.73C5.499 33.731.25 28.186.25 23"/></clipPath><clipPath id="c"><path d="M0 36h36V0H0v36z"/></clipPath></defs><g clip-path="url(#a)" transform="matrix(1.25 0 0 -1.25 0 45)"><path fill="#d99e82" d="M0 0c0 7.158 10 15 18 8 2.714-2.375 5-4 5-7 12 2 13.703-8.892 12-14-1-3-5.868-11.059-24-3C2-12 0-4.384 0 0" transform="translate(.25 23)"/></g><g clip-path="url(#b)" transform="matrix(1.25 0 0 -1.25 0 45)"><path fill="#c1694f" d="M0 0c-2.417-.257-4.491-.963-6.599-2.969 1.543 6.067 10.013 6.112 9.101 5.656C-1.498.687 0 0 0 0" transform="translate(24.309 24.146)"/></g><g clip-path="url(#c)" transform="matrix(1.25 0 0 -1.25 0 45)"><path fill="#c1694f" d="M0 0a1 1 0 1 0-2 0 1 1 0 0 0 2 0" transform="translate(11.25 20)"/><path fill="#c1694f" d="M0 0a1 1 0 1 0-2 0 1 1 0 1 0 2 0" transform="translate(31.25 10)"/><path fill="#c1694f" d="M0 0a1.5 1.5 0 1 0-3.001.001A1.5 1.5 0 0 0 0 0" transform="translate(16.25 10.5)"/><path fill="#c1694f" d="M0 0a1.5 1.5 0 1 0-3 0 1.5 1.5 0 0 0 3 0" transform="translate(7.25 16.5)"/></g></symbol><symbol xmlns="http://www.w3.org/2000/svg" xmlns:svg="http://www.w3.org/2000/svg" id="f" viewBox="0 0 45 45"><defs><clipPath id="d"><path d="M0 36h36V0H0v36z"/></clipPath></defs><g clip-path="url(#d)" transform="matrix(1.25 0 0 -1.25 0 45)"><path fill="#e1e8ed" d="M0 0c0-5.523-3.806-10-8.5-10S-17-5.523-17 0s3.806 10 8.5 10S0 5.523 0 0" transform="translate(17 18)"/><path fill="#e1e8ed" d="M0 0c0-5.523-3.806-10-8.5-10S-17-5.523-17 0s3.806 10 8.5 10S0 5.523 0 0" transform="translate(36 18)"/><path fill="#292f33" d="M0 0a3 3 0 1 0-6 0 3 3 0 0 0 6 0" transform="translate(8 14)"/><path fill="#292f33" d="M0 0a3 3 0 1 0-6 0 3 3 0 0 0 6 0" transform="translate(27 14)"/></g></symbol></defs><use x="668.793" y="-275.904" transform="matrix(1.01107 0 0 1.02307 -684.579 280.37)" xlink:href="#e"/><use x="10.748" y="-38.506" transform="matrix(.69826 0 0 .70754 2.455 73.35)" xlink:href="#f"/></svg>