<svg width="640" height="480" xmlns="http://www.w3.org/2000/svg" xmlns:svg="http://www.w3.org/2000/svg" xmlns:xlink="http://www.w3.org/1999/xlink">
 <title>Startchy</title>
 <defs>
  <symbol id="svg_28" viewBox="0 0 45 45" xmlns="http://www.w3.org/2000/svg" xmlns:svg="http://www.w3.org/2000/svg">
   <metadata id="svg_27">image/svg+xml</metadata>
   <defs>
    <clipPath clipPathUnits="userSpaceOnUse" id="svg_21">
     <path d="m0,36l36,0l0,-36l-36,0l0,36z" id="svg_26"/>
    </clipPath>
    <clipPath clipPathUnits="userSpaceOnUse" id="svg_16">
     <path d="m0.25,23c0,-4.383 2,-11.999 11,-16l0,0c18.131,-8.058 23,0 24,3.001l0,0c1.703,5.108 0,15.999 -12,13.999l0,0c0,3.001 -2.286,4.626 -5,7.001l0,0c-2.204,1.929 -4.56,2.731 -6.817,2.73l0,0c-5.934,0 -11.183,-5.545 -11.183,-10.731" id="svg_25"/>
    </clipPath>
    <clipPath clipPathUnits="userSpaceOnUse" id="svg_5">
     <path d="m0,36l36,0l0,-36l-36,0l0,36z" id="svg_24"/>
    </clipPath>
   </defs>
   <g id="svg_2" transform="matrix(1.25,0,0,-1.25,0,45)">
    <g id="svg_19">
     <g id="svg_20" clip-path="url(#svg_21)">
      <g id="svg_22" transform="translate(0.25,23.0005)">
       <path fill="#d99e82" fill-rule="nonzero" d="m0,0c0,7.158 10,15 18,8c2.714,-2.375 5,-4 5,-7c12,2 13.703,-8.892 12,-14c-1,-3 -5.868,-11.059 -24,-3c-9,4 -11,11.616 -11,16" id="svg_23"/>
      </g>
     </g>
    </g>
    <g id="svg_14">
     <g id="svg_15" clip-path="url(#svg_16)">
      <g id="svg_17" transform="translate(24.3089,24.1463)">
       <path fill="#c1694f" fill-rule="nonzero" d="m0,0c-2.417,-0.257 -4.491,-0.963 -6.599,-2.969c1.543,6.067 10.013,6.112 9.101,5.656c-4,-2 -2.502,-2.687 -2.502,-2.687" id="svg_18"/>
      </g>
     </g>
    </g>
    <g id="svg_3">
     <g id="svg_4" clip-path="url(#svg_5)">
      <g id="svg_12" transform="translate(11.25,20.0005)">
       <path fill="#c1694f" fill-rule="nonzero" d="m0,0c0,-0.552 -0.448,-1 -1,-1c-0.552,0 -1,0.448 -1,1c0,0.552 0.448,1 1,1c0.552,0 1,-0.448 1,-1" id="svg_13"/>
      </g>
      <g id="svg_10" transform="translate(31.25,10.0005)">
       <path fill="#c1694f" fill-rule="nonzero" d="m0,0c0,-0.553 -0.447,-1 -1,-1c-0.553,0 -1,0.447 -1,1c0,0.553 0.447,1 1,1c0.553,0 1,-0.447 1,-1" id="svg_11"/>
      </g>
      <g id="svg_8" transform="translate(16.25,10.5005)">
       <path fill="#c1694f" fill-rule="nonzero" d="m0,0c0,-0.828 -0.672,-1.5 -1.5,-1.5c-0.829,0 -1.5,0.672 -1.5,1.5c0,0.828 0.671,1.5 1.5,1.5c0.828,0 1.5,-0.672 1.5,-1.5" id="svg_9"/>
      </g>
      <g id="svg_6" transform="translate(7.25,16.5005)">
       <path fill="#c1694f" fill-rule="nonzero" d="m0,0c0,-0.828 -0.671,-1.5 -1.5,-1.5c-0.829,0 -1.5,0.672 -1.5,1.5c0,0.828 0.671,1.5 1.5,1.5c0.829,0 1.5,-0.672 1.5,-1.5" id="svg_7"/>
      </g>
     </g>
    </g>
   </g>
  </symbol>
  <symbol id="svg_46" viewBox="0 0 45 45" xmlns="http://www.w3.org/2000/svg" xmlns:svg="http://www.w3.org/2000/svg">
   <metadata id="svg_45">image/svg+xml</metadata>
   <defs>
    <clipPath clipPathUnits="userSpaceOnUse" id="svg_35">
     <path d="m0,36l36,0l0,-36l-36,0l0,36z" id="svg_44"/>
    </clipPath>
   </defs>
   <g id="svg_32" transform="matrix(1.25,0,0,-1.25,0,45)">
    <g id="svg_33">
     <g id="svg_34" clip-path="url(#svg_35)">
      <g id="svg_42" transform="translate(17,18)">
       <path fill="#e1e8ed" fill-rule="nonzero" d="m0,0c0,-5.523 -3.806,-10 -8.5,-10c-4.694,0 -8.5,4.477 -8.5,10c0,5.523 3.806,10 8.5,10c4.694,0 8.5,-4.477 8.5,-10" id="svg_43"/>
      </g>
      <g id="svg_40" transform="translate(36,18)">
       <path fill="#e1e8ed" fill-rule="nonzero" d="m0,0c0,-5.523 -3.806,-10 -8.5,-10c-4.694,0 -8.5,4.477 -8.5,10c0,5.523 3.806,10 8.5,10c4.694,0 8.5,-4.477 8.5,-10" id="svg_41"/>
      </g>
      <g id="svg_38" transform="translate(8,14)">
       <path fill="#292f33" fill-rule="nonzero" d="m0,0c0,-1.657 -1.343,-3 -3,-3c-1.657,0 -3,1.343 -3,3c0,1.657 1.343,3 3,3c1.657,0 3,-1.343 3,-3" id="svg_39"/>
      </g>
      <g id="svg_36" transform="translate(27,14)">
       <path fill="#292f33" fill-rule="nonzero" d="m0,0c0,-1.657 -1.344,-3 -3,-3c-1.656,0 -3,1.343 -3,3c0,1.657 1.344,3 3,3c1.656,0 3,-1.343 3,-3" id="svg_37"/>
      </g>
     </g>
    </g>
   </g>
  </symbol>
 </defs>
 <g>
  <title>Layer 1</title>
  <use x="668.793103" y="-275.904046" transform="matrix(1.0110673972548185,0,0,1.0230740531439642,-684.5785244784229,280.37050328672063) " xlink:href="#svg_28" id="svg_29"/>
  <g id="svg_30"/>
  <use x="10.747958" y="-38.505876" transform="matrix(0.6982621804981787,0,0,0.707539457132177,2.4549426126354383,73.34933899451138) " xlink:href="#svg_46" id="svg_47"/>
  <g id="svg_48"/>
 </g>
</svg>